<svg width="24" height="24" viewBox="0 0 24 24" fill="none" xmlns="http://www.w3.org/2000/svg">
<path d="M19.4481 13.5293C19.2539 12.8938 19.0417 12.2646 18.8115 11.6426L17.9561 9.39674C17.9569 9.37007 17.9672 8.9284 17.9672 8.70006C17.9664 4.86003 16.2422 1 12 1C7.75792 1 6.03364 4.86003 6.03364 8.7009C6.03364 8.92923 6.04395 9.3709 6.04474 9.39757L5.18855 11.6434C4.95824 12.2653 4.7462 12.8945 4.55275 13.5301C3.74333 16.266 4.00573 17.3993 4.20551 17.4243C4.63361 17.4785 5.87271 15.3643 5.87271 15.3643C5.87271 16.5885 6.47205 18.1868 7.77061 19.3402C7.28543 19.4968 6.69006 19.7393 6.30794 20.036C5.96388 20.3027 6.00748 20.5743 6.06932 20.6843C6.34124 21.166 10.7332 20.9918 12.0008 20.8418C13.2693 20.9918 17.6612 21.166 17.9331 20.6843C17.995 20.5743 18.0378 20.3027 17.6945 20.036C17.3116 19.7393 16.717 19.4977 16.2311 19.3393C17.5288 18.186 18.1282 16.5876 18.1282 15.3635C18.1282 15.3635 19.3673 17.4776 19.7954 17.4235C19.9944 17.3985 20.256 16.2651 19.4481 13.5293Z" stroke="black" stroke-width="1.5" stroke-linejoin="round"/>
</svg>
