<svg width="24" height="24" viewBox="0 0 24 24" fill="none" xmlns="http://www.w3.org/2000/svg">
<path d="M18.708 9.26367L19.5127 11.376L19.5146 11.3828L19.8535 12.3408L20.165 13.3105L20.167 13.3164L20.3115 13.8281C20.6201 14.9816 20.7384 15.8542 20.749 16.4805C20.755 16.8342 20.7272 17.1374 20.6641 17.3789C20.6333 17.4964 20.5856 17.6351 20.5039 17.7637C20.4399 17.8644 20.2503 18.1216 19.8887 18.167L19.8896 18.168C19.5413 18.212 19.273 18.0363 19.1699 17.9639C19.0329 17.8676 18.9077 17.7462 18.8037 17.6338C18.7063 17.5285 18.6083 17.409 18.5117 17.2852C18.2878 17.8906 17.9592 18.4956 17.5215 19.0537C17.6738 19.1306 17.8226 19.2145 17.9609 19.3057L18.1543 19.4434L18.2568 19.5293C18.4857 19.7357 18.64 19.9845 18.6992 20.2627C18.7639 20.5667 18.7018 20.8474 18.5869 21.0518L18.5859 21.0527C18.4668 21.2637 18.2887 21.376 18.1875 21.4297C18.0739 21.49 17.9543 21.5302 17.8516 21.5586C17.6446 21.6157 17.3984 21.6525 17.1475 21.6787C16.6388 21.7318 15.9944 21.751 15.3398 21.75C14.0851 21.748 12.705 21.6709 12.001 21.5947C11.2974 21.6709 9.9178 21.748 8.66309 21.75C8.00832 21.7511 7.36323 21.7318 6.85449 21.6787C6.60349 21.6525 6.35732 21.6157 6.15039 21.5586C6.04765 21.5302 5.92901 21.4899 5.81543 21.4297C5.72704 21.3828 5.57933 21.2913 5.46387 21.1279L5.41602 21.0527C5.30177 20.8495 5.23823 20.5683 5.30273 20.2637C5.37022 19.9453 5.56199 19.665 5.84766 19.4434L6.04102 19.3057C6.17875 19.2148 6.32672 19.1304 6.47852 19.0537C6.041 18.4959 5.71211 17.8912 5.48828 17.2861C5.39179 17.4098 5.29456 17.5296 5.19727 17.6348C5.09324 17.7472 4.96805 17.8685 4.83105 17.9648C4.72809 18.0372 4.46022 18.2116 4.1123 18.168C3.75191 18.1229 3.56285 17.8671 3.49805 17.7656C3.416 17.6371 3.36684 17.4985 3.33594 17.3809C3.27247 17.1391 3.24503 16.8353 3.25098 16.4814C3.26306 15.7655 3.41658 14.7282 3.83398 13.3174L3.83496 13.3115L3.9873 12.8252C4.14269 12.3405 4.30881 11.8595 4.48535 11.3828L4.4873 11.376L5.29199 9.26465C5.28862 9.1045 5.28321 8.85775 5.2832 8.70117C5.2832 6.68469 5.73407 4.60022 6.80176 2.99512C7.892 1.35622 9.61019 0.250013 12 0.25C14.3896 0.25 16.1079 1.35563 17.1982 2.99414C18.2661 4.59913 18.7164 6.68407 18.7168 8.7002L18.708 9.26367Z" fill="black"/>
</svg>
