<svg width="24" height="24" viewBox="0 0 24 24" fill="none" xmlns="http://www.w3.org/2000/svg">
<path d="M9.5 14.5L14.5 9.5M16.846 14.61L19.456 12C19.9456 11.5104 20.3339 10.9292 20.5989 10.2896C20.8638 9.64993 21.0002 8.96436 21.0002 8.27201C21.0002 7.57965 20.8638 6.89408 20.5989 6.25443C20.3339 5.61477 19.9456 5.03357 19.456 4.54401C18.9664 4.05444 18.3852 3.66609 17.7456 3.40114C17.1059 3.13619 16.4204 2.99982 15.728 2.99982C15.0357 2.99982 14.3501 3.13619 13.7104 3.40114C13.0708 3.66609 12.4896 4.05444 12 4.54401L9.39001 7.15401M14.61 16.846L12 19.456C11.5104 19.9456 10.9292 20.3339 10.2896 20.5989C9.64993 20.8638 8.96436 21.0002 8.27201 21.0002C7.57965 21.0002 6.89408 20.8638 6.25443 20.5989C5.61477 20.3339 5.03357 19.9456 4.54401 19.456C4.05444 18.9664 3.66609 18.3852 3.40114 17.7456C3.13619 17.1059 2.99982 16.4204 2.99982 15.728C2.99982 15.0357 3.13619 14.3501 3.40114 13.7104C3.66609 13.0708 4.05444 12.4896 4.54401 12L7.15401 9.39001" stroke="black" stroke-width="1.5" stroke-linecap="round" stroke-linejoin="round"/>
</svg>
