<svg width="24" height="24" viewBox="0 0 24 24" fill="none" xmlns="http://www.w3.org/2000/svg">
<path fill-rule="evenodd" clip-rule="evenodd" d="M10.5402 2.75921C12.0001 2.7408 13.4604 2.7507 14.9201 2.78753L16.0275 2.81683C17.0791 2.8496 17.9663 2.89879 18.713 3.02874C19.7422 3.20788 20.5787 3.55183 21.2853 4.26117C21.9891 4.96747 22.3319 5.79255 22.508 6.80511C22.6353 7.53792 22.6807 8.40532 22.7091 9.43011L22.7345 10.5082L22.7462 11.2553C22.7538 12.0006 22.7497 12.7446 22.7345 13.4916L22.7333 13.5495C22.7014 15.0323 22.6756 16.2304 22.508 17.1948C22.3319 18.2074 21.9901 19.0324 21.2863 19.7387C20.5795 20.4484 19.7424 20.7919 18.713 20.9711C17.9663 21.1011 17.0791 21.1503 16.0275 21.183L14.9201 21.2123C12.9673 21.2627 11.0321 21.2627 9.07925 21.2123L9.01022 21.2106C7.49068 21.1725 6.26706 21.1418 5.28629 20.9711C4.25687 20.7919 3.41981 20.4476 2.71304 19.7377C2.00996 19.0316 1.66717 18.2069 1.49136 17.1948C1.36408 16.4619 1.31936 15.5946 1.29117 14.5698L1.26578 13.4916C1.24452 12.4978 1.24352 11.5031 1.2648 10.5082L1.29019 9.43011C1.31867 8.40531 1.36398 7.53792 1.49136 6.80511C1.6674 5.7925 2.01018 4.9675 2.71402 4.26117C3.42066 3.55169 4.25716 3.20792 5.28629 3.02874C6.26689 2.85805 7.49032 2.82738 9.00951 2.78931L9.08023 2.78753L10.5402 2.75921ZM17.6455 8.11819C17.4479 7.78412 17.0315 7.65923 16.6865 7.81838L16.6182 7.85452L13.6758 9.59475C12.8316 10.0935 12.3828 10.2509 12 10.251C11.6171 10.251 11.1685 10.0939 10.3242 9.59475L7.38184 7.85452L7.31348 7.81838C6.96851 7.65923 6.5521 7.78412 6.35449 8.11819C6.15684 8.45238 6.24785 8.87793 6.55371 9.10354L6.61817 9.14553L9.56055 10.8858L9.88184 11.0703C10.6201 11.4822 11.2849 11.751 12 11.751C12.8171 11.7509 13.5685 11.4004 14.4395 10.8858L17.3818 9.14553L17.4463 9.10354C17.7522 8.87793 17.8432 8.45238 17.6455 8.11819Z" fill="black"/>
</svg>
