<svg width="24" height="24" viewBox="0 0 24 24" fill="none" xmlns="http://www.w3.org/2000/svg">
<path fill-rule="evenodd" clip-rule="evenodd" d="M22.75 16V16.002C22.7483 16.7501 22.5801 17.487 22.2598 18.1602L22.1133 18.4443L22.1045 18.46C22.0783 18.5046 22.062 18.5542 22.0557 18.6055C22.0497 18.6542 22.0527 18.7037 22.0654 18.751L22.7139 20.7705C22.7945 21.0217 22.7376 21.297 22.5635 21.4951C22.3891 21.6933 22.1228 21.7853 21.8633 21.7373L18.9932 21.2061C18.9508 21.1982 18.8881 21.2008 18.8086 21.2314L18.8076 21.2305C17.9499 21.5639 16.9988 21.75 16 21.75C13.0739 21.75 10.4386 20.1246 9.55978 17.7412C8.42092 17.691 7.29835 17.4411 6.24316 17.002L6.2373 17C6.1674 16.9702 6.10551 16.9663 6.05859 16.9756L6.05664 16.9766L2.14258 17.7363C1.88428 17.7863 1.61843 17.6975 1.44238 17.502C1.26627 17.3063 1.20625 17.032 1.2832 16.7803L2.21484 13.7314L2.22461 13.6777C2.22752 13.6391 2.22304 13.5936 2.20605 13.5439L2.1709 13.4668C1.58403 12.4267 1.25 11.2482 1.25 10C1.25 5.62883 5.26501 2.25 10 2.25C14.735 2.25 18.75 5.62883 18.75 10C18.75 10.2475 18.7373 10.4928 18.7116 10.7357C21.0438 11.6075 22.75 13.5754 22.75 16ZM14.0859 13.7539L14.0088 13.75H14C13.5858 13.75 13.25 14.0858 13.25 14.5C13.25 14.9142 13.5858 15.25 14 15.25H14.0088L14.0859 15.2461C14.464 15.2076 14.7588 14.8882 14.7588 14.5C14.7588 14.1118 14.464 13.7924 14.0859 13.7539ZM18.0772 13.7539L18 13.75H17.9912C17.577 13.75 17.2412 14.0858 17.2412 14.5C17.2412 14.9142 17.577 15.25 17.9912 15.25H18L18.0772 15.2461C18.4551 15.2075 18.75 14.8882 18.75 14.5C18.75 14.1118 18.4551 13.7925 18.0772 13.7539ZM7.7588 7C7.7588 6.58579 7.42301 6.25 7.0088 6.25H7.00001C6.58579 6.25 6.25001 6.58579 6.25001 7C6.25001 7.41422 6.58579 7.75 7.00001 7.75H7.0088C7.42301 7.75 7.7588 7.41422 7.7588 7ZM13.75 7C13.75 6.58579 13.4142 6.25 13 6.25H12.9912C12.577 6.25 12.2412 6.58579 12.2412 7C12.2412 7.41422 12.577 7.75 12.9912 7.75H13C13.4142 7.75 13.75 7.41422 13.75 7Z" fill="black"/>
</svg>
