<svg width="32" height="32" viewBox="0 0 32 32" fill="none" xmlns="http://www.w3.org/2000/svg">
<path fill-rule="evenodd" clip-rule="evenodd" d="M26 16C26 21.5228 21.5228 26 16 26C10.4772 26 6 21.5228 6 16C6 10.4772 10.4772 6 16 6C16.2229 6 16.4441 6.00729 16.6634 6.02165C16.2379 6.92539 16 7.93492 16 9C16 12.866 19.134 16 23 16C24.0651 16 25.0746 15.7621 25.9783 15.3366C25.9927 15.5559 26 15.7771 26 16ZM8 16C8 20.4183 11.5817 24 16 24C19.7389 24 22.8788 21.435 23.756 17.9687C23.5067 17.9894 23.2546 18 23 18C18.0294 18 14 13.9706 14 9C14 8.74541 14.0106 8.49329 14.0313 8.24405C10.565 9.1212 8 12.2611 8 16Z" fill="#D9D9D9"/>
</svg>
