<svg width="50" height="50" viewBox="0 0 50 50" fill="none" xmlns="http://www.w3.org/2000/svg">
<rect width="50" height="50" rx="25" fill="white"/>
<g clip-path="url(#clip0_563_1779)">
<path d="M25.25 24.806C25.2501 23.8407 25.6337 22.915 26.3163 22.2325C26.9989 21.5499 27.9247 21.1665 28.89 21.1665H29.4165C29.9565 21.1605 30.4924 21.2617 30.993 21.4643C31.4937 21.6668 31.9492 21.9666 32.3331 22.3464C32.7171 22.7261 33.022 23.1783 33.23 23.6766C33.4381 24.175 33.5452 24.7097 33.5452 25.2498C33.5452 25.7898 33.4381 26.3245 33.23 26.8229C33.022 27.3213 32.7171 27.7734 32.3331 28.1532C31.9492 28.5329 31.4937 28.8327 30.993 29.0353C30.4924 29.2378 29.9565 29.339 29.4165 29.333H28.89C27.9248 29.3329 26.9991 28.9494 26.3166 28.2669C25.6341 27.5844 25.2506 26.6587 25.2505 25.6935L25.25 24.806Z" fill="#00B6FF"/>
<path d="M17 33.417C17 32.334 17.4302 31.2953 18.196 30.5295C18.9618 29.7637 20.0005 29.3335 21.0835 29.3335H25.25V33.375C25.25 35.6535 23.3825 37.5 21.104 37.5C18.849 37.5 17 35.672 17 33.417Z" fill="#24CB71"/>
<path d="M25.25 13V21.1665H29.4165C29.9565 21.1725 30.4924 21.0713 30.993 20.8688C31.4937 20.6662 31.9492 20.3664 32.3331 19.9867C32.7171 19.6069 33.022 19.1547 33.23 18.6564C33.4381 18.158 33.5452 17.6233 33.5452 17.0833C33.5452 16.5432 33.4381 16.0085 33.23 15.5101C33.022 15.0118 32.7171 14.5596 32.3331 14.1799C31.9492 13.8001 31.4937 13.5003 30.993 13.2978C30.4924 13.0952 29.9565 12.994 29.4165 13H25.25Z" fill="#FF7237"/>
<path d="M17 17.083C17 18.166 17.4302 19.2047 18.196 19.9705C18.9618 20.7363 20.0005 21.1665 21.0835 21.1665H25.25V13H21.0835C20.0006 13 18.962 13.4302 18.1962 14.1959C17.4304 14.9615 17.0001 16.0001 17 17.083Z" fill="#FF3737"/>
<path d="M17 25.25C17 26.333 17.4302 27.3717 18.196 28.1375C18.9618 28.9033 20.0005 29.3335 21.0835 29.3335H25.25V21.167H21.0835C20.0006 21.167 18.962 21.5971 18.1962 22.3628C17.4304 23.1285 17.0001 24.1671 17 25.25Z" fill="#874FFF"/>
</g>
<defs>
<clipPath id="clip0_563_1779">
<rect width="16.5" height="24.5" fill="white" transform="translate(17 13)"/>
</clipPath>
</defs>
</svg>
