<svg width="32" height="32" viewBox="0 0 32 32" fill="none" xmlns="http://www.w3.org/2000/svg">
<rect width="32" height="32" rx="8" fill="white"/>
<g clip-path="url(#clip0_633_662)">
<path d="M16.5723 16.5714C16.5723 15.6116 16.9636 14.6911 17.6602 14.0124C18.3567 13.3337 19.3015 12.9524 20.2866 12.9524C21.2716 12.9524 22.2164 13.3337 22.9129 14.0124C23.6095 14.6911 24.0008 15.6116 24.0008 16.5714C24.0008 17.5313 23.6095 18.4518 22.9129 19.1305C22.2164 19.8092 21.2716 20.1905 20.2866 20.1905C19.3015 20.1905 18.3567 19.8092 17.6602 19.1305C16.9636 18.4518 16.5723 17.5313 16.5723 16.5714Z" fill="#1ABCFE"/>
<path d="M9.14355 23.8095C9.14355 22.8496 9.53488 21.9291 10.2314 21.2504C10.928 20.5717 11.8728 20.1904 12.8578 20.1904H16.5721V23.8095C16.5721 24.7693 16.1808 25.6898 15.4842 26.3685C14.7877 27.0472 13.8429 27.4285 12.8578 27.4285C11.8728 27.4285 10.928 27.0472 10.2314 26.3685C9.53488 25.6898 9.14355 24.7693 9.14355 23.8095Z" fill="#0ACF83"/>
<path d="M16.5723 5.71436V12.9525H20.2866C21.2716 12.9525 22.2164 12.5712 22.9129 11.8925C23.6095 11.2138 24.0008 10.2932 24.0008 9.3334C24.0008 8.37357 23.6095 7.45305 22.9129 6.77435C22.2164 6.09565 21.2716 5.71436 20.2866 5.71436H16.5723Z" fill="#FF7262"/>
<path d="M9.14355 9.3334C9.14355 10.2932 9.53488 11.2138 10.2314 11.8925C10.928 12.5712 11.8728 12.9525 12.8578 12.9525H16.5721V5.71436H12.8578C11.8728 5.71436 10.928 6.09565 10.2314 6.77435C9.53488 7.45305 9.14355 8.37357 9.14355 9.3334Z" fill="#F24E1E"/>
<path d="M9.14355 16.5714C9.14355 17.5313 9.53488 18.4518 10.2314 19.1305C10.928 19.8092 11.8728 20.1905 12.8578 20.1905H16.5721V12.9524H12.8578C11.8728 12.9524 10.928 13.3337 10.2314 14.0124C9.53488 14.6911 9.14355 15.6116 9.14355 16.5714Z" fill="#A259FF"/>
</g>
<defs>
<clipPath id="clip0_633_662">
<rect width="14.8571" height="21.7143" fill="white" transform="translate(9.14355 5.71436)"/>
</clipPath>
</defs>
</svg>
