<svg width="48" height="48" viewBox="0 0 48 48" fill="none" xmlns="http://www.w3.org/2000/svg">
<path d="M25 1.5C12.292 1.5 2 11.792 2 24.5C2 34.678 8.584 43.274 17.726 46.32C18.876 46.522 19.306 45.832 19.306 45.228C19.306 44.682 19.278 42.872 19.278 40.944C13.5 42.008 12.006 39.536 11.546 38.244C11.286 37.582 10.166 35.54 9.186 34.994C8.382 34.562 7.232 33.498 9.158 33.47C10.97 33.442 12.264 35.138 12.696 35.828C14.766 39.308 18.072 38.328 19.394 37.724C19.594 36.23 20.198 35.224 20.86 34.648C15.742 34.074 10.396 32.09 10.396 23.292C10.396 20.792 11.286 18.722 12.752 17.112C12.522 16.536 11.718 14.178 12.982 11.016C12.982 11.016 14.908 10.412 19.308 13.374C21.148 12.856 23.102 12.598 25.058 12.598C27.012 12.598 28.968 12.858 30.808 13.374C35.208 10.384 37.132 11.016 37.132 11.016C38.398 14.178 37.592 16.536 37.362 17.112C38.828 18.722 39.72 20.762 39.72 23.292C39.72 32.118 34.344 34.072 29.226 34.648C30.06 35.368 30.778 36.748 30.778 38.904C30.778 41.98 30.75 44.452 30.75 45.228C30.75 45.832 31.182 46.552 32.33 46.322C41.418 43.274 48 34.648 48 24.5C48 11.792 37.708 1.5 25 1.5Z" fill="black"/>
</svg>
