<svg width="160" height="32" viewBox="0 0 160 32" fill="none" xmlns="http://www.w3.org/2000/svg">
<path d="M4 13.9545L4 26H11.2V19.4091L6.7 14.8636V13.9545H4Z" fill="#C0C4D5"/>
<path d="M4 6L4 13.9545H6.7H22V9.63636L18.4 6H4Z" fill="#C0C4D5"/>
<path d="M147.293 8.52418V14.4522H155.381V16.5882H147.293V23.4762H155.933V25.6122H144.821V6.38818H155.933V8.52418H147.293Z" fill="#C0C4D5"/>
<path d="M141.525 25.6122H139.077V9.94018L133.221 25.6122H130.701L124.893 10.0122V25.6122H122.637V6.38818H125.949L132.045 22.8522L138.141 6.38818H141.525V25.6122Z" fill="#C0C4D5"/>
<path d="M117.925 22.708C118.389 22.708 118.757 22.852 119.029 23.14C119.317 23.412 119.461 23.78 119.461 24.244C119.461 24.708 119.317 25.076 119.029 25.348C118.757 25.636 118.389 25.78 117.925 25.78C117.461 25.78 117.085 25.636 116.797 25.348C116.525 25.076 116.389 24.708 116.389 24.244C116.389 23.78 116.525 23.412 116.797 23.14C117.085 22.852 117.461 22.708 117.925 22.708Z" fill="#C0C4D5"/>
<path d="M105.956 25.8762C104.468 25.8762 103.164 25.5802 102.044 24.9882C100.94 24.4122 100.084 23.5882 99.4759 22.5162C98.8839 21.4282 98.5879 20.1562 98.5879 18.7002V6.38818H100.892V18.5802C100.892 20.2282 101.332 21.5162 102.212 22.4442C103.108 23.3562 104.332 23.8122 105.884 23.8122C107.452 23.8122 108.676 23.3562 109.556 22.4442C110.436 21.5162 110.876 20.2122 110.876 18.5322V6.38818H113.324V18.7002C113.324 20.1562 113.02 21.4282 112.412 22.5162C111.82 23.5882 110.964 24.4122 109.844 24.9882C108.74 25.5802 107.444 25.8762 105.956 25.8762Z" fill="#C0C4D5"/>
<path d="M95.1937 6.38818V25.6122H92.7217V6.38818H95.1937Z" fill="#C0C4D5"/>
<path d="M90.1463 23.4762V25.6122H79.3223V6.38818H81.7943V23.4762H90.1463Z" fill="#C0C4D5"/>
<path d="M76.5689 16.0122C76.5689 17.9322 76.2249 19.6202 75.5369 21.0762C74.8649 22.5162 73.8889 23.6282 72.6089 24.4122C71.3289 25.2122 69.8169 25.6122 68.0729 25.6122H61.5449V6.38818H68.0729C69.8169 6.38818 71.3289 6.78818 72.6089 7.58818C73.8889 8.37218 74.8649 9.49218 75.5369 10.9482C76.2249 12.3882 76.5689 14.0762 76.5689 16.0122ZM74.0969 16.0122C74.0969 13.7242 73.5369 11.9082 72.4169 10.5642C71.2969 9.20418 69.7209 8.52418 67.6889 8.52418H64.0169V23.4762H67.6889C69.7209 23.4762 71.2969 22.8042 72.4169 21.4602C73.5369 20.1162 74.0969 18.3002 74.0969 16.0122Z" fill="#C0C4D5"/>
<path d="M53.2259 17.6682V25.6122H50.7539V17.7162L44.1299 6.38818H46.9619L52.0499 15.7002L57.1379 6.38818H59.8259L53.2259 17.6682Z" fill="#C0C4D5"/>
<path d="M30.6606 11.2849C30.6606 10.2343 30.9044 9.31313 31.392 8.52121C31.8796 7.71313 32.5717 7.09091 33.4682 6.65455C34.3805 6.21818 35.458 6 36.7005 6C38.2105 6 39.4767 6.33131 40.4991 6.99394C41.5372 7.6404 42.245 8.5697 42.6225 9.78182L40.6407 10.7273C40.0587 9.01414 38.761 8.15758 36.7477 8.15758C35.5523 8.15758 34.6479 8.41616 34.0345 8.93333C33.4211 9.45051 33.1143 10.202 33.1143 11.1879C33.1143 11.802 33.2402 12.3111 33.4918 12.7152C33.7435 13.103 34.1524 13.4424 34.7187 13.7333C35.3007 14.0081 36.1028 14.2586 37.1252 14.4848C39.2172 14.9374 40.7193 15.6242 41.6316 16.5455C42.5439 17.4505 43 18.7111 43 20.3273C43 21.4263 42.7247 22.4121 42.1742 23.2848C41.6394 24.1414 40.8845 24.804 39.9093 25.2727C38.9341 25.7576 37.8173 26 36.559 26C34.8917 26 33.484 25.6283 32.3358 24.8848C31.2033 24.1414 30.4247 23.0909 30 21.7333L31.9819 20.7636C32.3122 21.7657 32.8627 22.5333 33.6334 23.0667C34.4198 23.5838 35.395 23.8424 36.559 23.8424C37.8173 23.8424 38.8004 23.5354 39.5082 22.9212C40.216 22.3071 40.5699 21.4586 40.5699 20.3758C40.5699 19.697 40.4283 19.1313 40.1452 18.6788C39.8778 18.2263 39.4217 17.8384 38.7768 17.5152C38.1476 17.1919 37.2825 16.9091 36.1815 16.6667C34.2626 16.2465 32.8627 15.6081 31.9819 14.7515C31.101 13.8788 30.6606 12.7232 30.6606 11.2849Z" fill="#C0C4D5"/>
</svg>
