<svg width="32" height="32" viewBox="0 0 32 32" fill="none" xmlns="http://www.w3.org/2000/svg">
<path fill-rule="evenodd" clip-rule="evenodd" d="M23.5 21C23.7761 21 24 21.2239 24 21.5V22.5C24 22.7761 23.7761 23 23.5 23H7.5C7.22386 23 7 22.7761 7 22.5V21.5C7 21.2239 7.22386 21 7.5 21H23.5ZM23.5 15C23.7761 15 24 15.2239 24 15.5V16.5C24 16.7761 23.7761 17 23.5 17H7.5C7.22386 17 7 16.7761 7 16.5V15.5C7 15.2239 7.22386 15 7.5 15H23.5ZM23.5 9C23.7761 9 24 9.22386 24 9.5V10.5C24 10.7761 23.7761 11 23.5 11H7.5C7.22386 11 7 10.7761 7 10.5V9.5C7 9.22386 7.22386 9 7.5 9H23.5Z" fill="#E8E8E8"/>
</svg>
